<mxfile host="app.diagrams.net" modified="2021-12-03T02:49:52.265Z" agent="5.0 (Windows NT 10.0; Win64; x64) AppleWebKit/537.36 (KHTML, like Gecko) Chrome/96.0.4664.45 Safari/537.36" etag="uYpHW0ea4fPbrqGJMVUJ" version="15.8.8" type="github" pages="8">
  <diagram id="aAJsCEYj-XfXMxEE4FyB" name="Overview">
    <mxGraphModel dx="1108" dy="450" grid="1" gridSize="10" guides="1" tooltips="1" connect="1" arrows="1" fold="1" page="1" pageScale="1" pageWidth="827" pageHeight="1169" math="0" shadow="0">
      <root>
        <mxCell id="0" />
        <mxCell id="1" parent="0" />
        <mxCell id="7yHpSvVP55hflBDsS74Y-1" value="Product" style="text;html=1;strokeColor=none;fillColor=none;align=center;verticalAlign=middle;whiteSpace=wrap;rounded=0;" vertex="1" parent="1">
          <mxGeometry x="60" y="50" width="60" height="30" as="geometry" />
        </mxCell>
        <mxCell id="7yHpSvVP55hflBDsS74Y-2" value="Platform" style="text;html=1;strokeColor=none;fillColor=none;align=center;verticalAlign=middle;whiteSpace=wrap;rounded=0;" vertex="1" parent="1">
          <mxGeometry x="380" y="50" width="60" height="30" as="geometry" />
        </mxCell>
        <mxCell id="7yHpSvVP55hflBDsS74Y-3" value="Reliability, Security, Compliance" style="text;html=1;strokeColor=none;fillColor=none;align=center;verticalAlign=middle;whiteSpace=wrap;rounded=0;" vertex="1" parent="1">
          <mxGeometry x="680" y="40" width="130" height="30" as="geometry" />
        </mxCell>
        <mxCell id="7yHpSvVP55hflBDsS74Y-4" value="1. Agile product delivery" style="text;whiteSpace=wrap;html=1;" vertex="1" parent="1">
          <mxGeometry x="60" y="105" width="140" height="30" as="geometry" />
        </mxCell>
        <mxCell id="7yHpSvVP55hflBDsS74Y-5" value="2. AI-augmented DevOps practices" style="text;whiteSpace=wrap;html=1;" vertex="1" parent="1">
          <mxGeometry x="60" y="135" width="200" height="40" as="geometry" />
        </mxCell>
        <mxCell id="7yHpSvVP55hflBDsS74Y-6" value="3. Continuous quality" style="text;whiteSpace=wrap;html=1;" vertex="1" parent="1">
          <mxGeometry x="60" y="165" width="140" height="30" as="geometry" />
        </mxCell>
        <mxCell id="7yHpSvVP55hflBDsS74Y-7" value="4. Platform engineering" style="text;whiteSpace=wrap;html=1;" vertex="1" parent="1">
          <mxGeometry x="380" y="105" width="150" height="30" as="geometry" />
        </mxCell>
        <mxCell id="7yHpSvVP55hflBDsS74Y-8" value="5. Cloud-native architecture" style="text;whiteSpace=wrap;html=1;" vertex="1" parent="1">
          <mxGeometry x="380" y="135" width="170" height="30" as="geometry" />
        </mxCell>
        <mxCell id="7yHpSvVP55hflBDsS74Y-9" value="6. Continuous&#xa;infrastructure automation" style="text;whiteSpace=wrap;html=1;" vertex="1" parent="1">
          <mxGeometry x="380" y="165" width="160" height="40" as="geometry" />
        </mxCell>
        <mxCell id="7yHpSvVP55hflBDsS74Y-10" value="7. Reliability and resilience" style="text;whiteSpace=wrap;html=1;" vertex="1" parent="1">
          <mxGeometry x="680" y="105" width="170" height="30" as="geometry" />
        </mxCell>
        <mxCell id="7yHpSvVP55hflBDsS74Y-11" value="8. Security automation" style="text;whiteSpace=wrap;html=1;" vertex="1" parent="1">
          <mxGeometry x="680" y="140" width="140" height="30" as="geometry" />
        </mxCell>
        <mxCell id="7yHpSvVP55hflBDsS74Y-12" value="9. Continuous&#xa;compliance automation" style="text;whiteSpace=wrap;html=1;" vertex="1" parent="1">
          <mxGeometry x="680" y="175" width="150" height="40" as="geometry" />
        </mxCell>
        <mxCell id="7yHpSvVP55hflBDsS74Y-13" value="10. Value stream engineering" style="text;whiteSpace=wrap;html=1;" vertex="1" parent="1">
          <mxGeometry x="310" y="280" width="180" height="30" as="geometry" />
        </mxCell>
        <mxCell id="7yHpSvVP55hflBDsS74Y-14" value="" style="endArrow=none;html=1;rounded=0;" edge="1" parent="1">
          <mxGeometry width="50" height="50" relative="1" as="geometry">
            <mxPoint x="80" y="245" as="sourcePoint" />
            <mxPoint x="820" y="245" as="targetPoint" />
          </mxGeometry>
        </mxCell>
        <mxCell id="7yHpSvVP55hflBDsS74Y-15" value="" style="endArrow=none;html=1;rounded=0;" edge="1" parent="1">
          <mxGeometry width="50" height="50" relative="1" as="geometry">
            <mxPoint x="65" y="79" as="sourcePoint" />
            <mxPoint x="120" y="79" as="targetPoint" />
          </mxGeometry>
        </mxCell>
        <mxCell id="7yHpSvVP55hflBDsS74Y-16" value="" style="endArrow=none;html=1;rounded=0;" edge="1" parent="1">
          <mxGeometry width="50" height="50" relative="1" as="geometry">
            <mxPoint x="385" y="79" as="sourcePoint" />
            <mxPoint x="440" y="79" as="targetPoint" />
          </mxGeometry>
        </mxCell>
        <mxCell id="7yHpSvVP55hflBDsS74Y-17" value="" style="endArrow=none;html=1;rounded=0;" edge="1" parent="1">
          <mxGeometry width="50" height="50" relative="1" as="geometry">
            <mxPoint x="690" y="79" as="sourcePoint" />
            <mxPoint x="745" y="79" as="targetPoint" />
          </mxGeometry>
        </mxCell>
      </root>
    </mxGraphModel>
  </diagram>
  <diagram id="x0PDHMu-28Qku3AsSeGP" name="4. Platform Engineering">
    <mxGraphModel dx="1108" dy="450" grid="1" gridSize="10" guides="1" tooltips="1" connect="1" arrows="1" fold="1" page="1" pageScale="1" pageWidth="827" pageHeight="1169" math="0" shadow="0">
      <root>
        <mxCell id="yfAdzYAspmstA1rM2une-0" />
        <mxCell id="yfAdzYAspmstA1rM2une-1" parent="yfAdzYAspmstA1rM2une-0" />
        <mxCell id="215Z1S1inMU1brCJqcPS-5" style="edgeStyle=orthogonalEdgeStyle;rounded=0;orthogonalLoop=1;jettySize=auto;html=1;entryX=0.05;entryY=0.313;entryDx=0;entryDy=0;entryPerimeter=0;" edge="1" parent="yfAdzYAspmstA1rM2une-1" source="215Z1S1inMU1brCJqcPS-1" target="215Z1S1inMU1brCJqcPS-4">
          <mxGeometry relative="1" as="geometry">
            <mxPoint x="300" y="441" as="targetPoint" />
            <Array as="points">
              <mxPoint x="250" y="325" />
              <mxPoint x="250" y="415" />
            </Array>
          </mxGeometry>
        </mxCell>
        <mxCell id="215Z1S1inMU1brCJqcPS-1" value="" style="verticalLabelPosition=bottom;sketch=0;html=1;fillColor=#A153A0;strokeColor=#ffffff;verticalAlign=top;align=center;points=[[0,0.5,0],[0.125,0.25,0],[0.25,0,0],[0.5,0,0],[0.75,0,0],[0.875,0.25,0],[1,0.5,0],[0.875,0.75,0],[0.75,1,0],[0.5,1,0],[0.125,0.75,0]];pointerEvents=1;shape=mxgraph.cisco_safe.compositeIcon;bgIcon=ellipse;resIcon=mxgraph.cisco_safe.design.users;" vertex="1" parent="yfAdzYAspmstA1rM2une-1">
          <mxGeometry x="90" y="300" width="50" height="50" as="geometry" />
        </mxCell>
        <mxCell id="215Z1S1inMU1brCJqcPS-6" style="edgeStyle=orthogonalEdgeStyle;rounded=0;orthogonalLoop=1;jettySize=auto;html=1;" edge="1" parent="yfAdzYAspmstA1rM2une-1" source="215Z1S1inMU1brCJqcPS-2">
          <mxGeometry relative="1" as="geometry">
            <mxPoint x="370" y="440" as="targetPoint" />
            <Array as="points">
              <mxPoint x="230" y="440" />
              <mxPoint x="230" y="440" />
            </Array>
          </mxGeometry>
        </mxCell>
        <mxCell id="215Z1S1inMU1brCJqcPS-2" value="" style="sketch=0;outlineConnect=0;fontColor=#232F3E;gradientColor=none;fillColor=#232F3D;strokeColor=none;dashed=0;verticalLabelPosition=bottom;verticalAlign=top;align=center;html=1;fontSize=12;fontStyle=0;aspect=fixed;pointerEvents=1;shape=mxgraph.aws4.users;" vertex="1" parent="yfAdzYAspmstA1rM2une-1">
          <mxGeometry x="76" y="410" width="78" height="78" as="geometry" />
        </mxCell>
        <mxCell id="215Z1S1inMU1brCJqcPS-7" style="edgeStyle=orthogonalEdgeStyle;rounded=0;orthogonalLoop=1;jettySize=auto;html=1;entryX=0;entryY=1;entryDx=0;entryDy=0;" edge="1" parent="yfAdzYAspmstA1rM2une-1" source="215Z1S1inMU1brCJqcPS-3" target="215Z1S1inMU1brCJqcPS-4">
          <mxGeometry relative="1" as="geometry">
            <Array as="points">
              <mxPoint x="250" y="585" />
              <mxPoint x="250" y="458" />
            </Array>
          </mxGeometry>
        </mxCell>
        <mxCell id="215Z1S1inMU1brCJqcPS-3" value="" style="aspect=fixed;perimeter=ellipsePerimeter;html=1;align=center;shadow=0;dashed=0;spacingTop=3;image;image=img/lib/active_directory/users.svg;" vertex="1" parent="yfAdzYAspmstA1rM2une-1">
          <mxGeometry x="98.5" y="560" width="33" height="50" as="geometry" />
        </mxCell>
        <mxCell id="215Z1S1inMU1brCJqcPS-4" value="" style="ellipse;whiteSpace=wrap;html=1;aspect=fixed;" vertex="1" parent="yfAdzYAspmstA1rM2une-1">
          <mxGeometry x="374" y="390" width="80" height="80" as="geometry" />
        </mxCell>
        <mxCell id="215Z1S1inMU1brCJqcPS-8" value="Self Serve" style="text;html=1;strokeColor=none;fillColor=none;align=center;verticalAlign=middle;whiteSpace=wrap;rounded=0;" vertex="1" parent="yfAdzYAspmstA1rM2une-1">
          <mxGeometry x="190" y="270" width="60" height="30" as="geometry" />
        </mxCell>
        <mxCell id="215Z1S1inMU1brCJqcPS-9" value="" style="sketch=0;aspect=fixed;html=1;points=[];align=center;image;fontSize=12;image=img/lib/mscae/Kubernetes.svg;" vertex="1" parent="yfAdzYAspmstA1rM2une-1">
          <mxGeometry x="550" y="280" width="50" height="48" as="geometry" />
        </mxCell>
        <mxCell id="215Z1S1inMU1brCJqcPS-10" value="" style="outlineConnect=0;dashed=0;verticalLabelPosition=bottom;verticalAlign=top;align=center;html=1;shape=mxgraph.aws3.cloud_2;fillColor=#F58534;gradientColor=none;" vertex="1" parent="yfAdzYAspmstA1rM2une-1">
          <mxGeometry x="550" y="360" width="60" height="60" as="geometry" />
        </mxCell>
        <mxCell id="215Z1S1inMU1brCJqcPS-11" value="" style="shape=image;html=1;verticalAlign=top;verticalLabelPosition=bottom;labelBackgroundColor=#ffffff;imageAspect=0;aspect=fixed;image=https://cdn0.iconfinder.com/data/icons/font-awesome-brands-vol-1/512/jenkins-128.png" vertex="1" parent="yfAdzYAspmstA1rM2une-1">
          <mxGeometry x="560" y="550" width="50" height="50" as="geometry" />
        </mxCell>
        <mxCell id="215Z1S1inMU1brCJqcPS-12" value="Containers" style="text;html=1;strokeColor=none;fillColor=none;align=center;verticalAlign=middle;whiteSpace=wrap;rounded=0;" vertex="1" parent="yfAdzYAspmstA1rM2une-1">
          <mxGeometry x="660" y="289" width="60" height="30" as="geometry" />
        </mxCell>
        <mxCell id="215Z1S1inMU1brCJqcPS-13" value="Infra Provisioning" style="text;html=1;align=center;verticalAlign=middle;resizable=0;points=[];autosize=1;strokeColor=none;fillColor=none;" vertex="1" parent="yfAdzYAspmstA1rM2une-1">
          <mxGeometry x="655" y="370" width="110" height="20" as="geometry" />
        </mxCell>
        <mxCell id="215Z1S1inMU1brCJqcPS-14" value="Self serve Pipelines" style="text;html=1;align=center;verticalAlign=middle;resizable=0;points=[];autosize=1;strokeColor=none;fillColor=none;" vertex="1" parent="yfAdzYAspmstA1rM2une-1">
          <mxGeometry x="655" y="565" width="120" height="20" as="geometry" />
        </mxCell>
      </root>
    </mxGraphModel>
  </diagram>
  <diagram id="XzD10cqBDgRZpufVYRJ0" name="5. Cloud Native Arch">
    <mxGraphModel dx="1108" dy="450" grid="1" gridSize="10" guides="1" tooltips="1" connect="1" arrows="1" fold="1" page="1" pageScale="1" pageWidth="827" pageHeight="1169" math="0" shadow="0">
      <root>
        <mxCell id="fZuJMfBiT-5ghEMpBZgV-0" />
        <mxCell id="fZuJMfBiT-5ghEMpBZgV-1" parent="fZuJMfBiT-5ghEMpBZgV-0" />
        <mxCell id="fZuJMfBiT-5ghEMpBZgV-2" value="&lt;b style=&quot;color: rgb(32 , 33 , 36) ; font-family: &amp;#34;arial&amp;#34; , sans-serif ; font-size: 16px ; font-style: normal ; letter-spacing: normal ; text-align: left ; text-indent: 0px ; text-transform: none ; word-spacing: 0px ; background-color: rgb(255 , 255 , 255)&quot;&gt;&lt;span&gt;&amp;nbsp;D&lt;/span&gt;esign methodology that utilizes cloud services&lt;/b&gt;&lt;span style=&quot;color: rgb(32 , 33 , 36) ; font-family: &amp;#34;arial&amp;#34; , sans-serif ; font-size: 16px ; font-style: normal ; font-weight: 400 ; letter-spacing: normal ; text-align: left ; text-indent: 0px ; text-transform: none ; word-spacing: 0px ; background-color: rgb(255 , 255 , 255) ; display: inline ; float: none&quot;&gt;&lt;span&gt;&amp;nbsp;&lt;/span&gt;such as EC2, S3, Lambda from AWS,&lt;/span&gt;" style="text;whiteSpace=wrap;html=1;" vertex="1" parent="fZuJMfBiT-5ghEMpBZgV-1">
          <mxGeometry x="170" y="30" width="550" height="50" as="geometry" />
        </mxCell>
        <mxCell id="fZuJMfBiT-5ghEMpBZgV-3" value="https://cloud.google.com/blog/products/application-development/5-principles-for-cloud-native-architecture-what-it-is-and-how-to-master-it" style="text;html=1;align=center;verticalAlign=middle;resizable=0;points=[];autosize=1;strokeColor=none;fillColor=none;" vertex="1" parent="fZuJMfBiT-5ghEMpBZgV-1">
          <mxGeometry x="160" y="100" width="740" height="20" as="geometry" />
        </mxCell>
        <mxCell id="fZuJMfBiT-5ghEMpBZgV-5" value="&lt;div&gt;Principle 1: Design for automation&lt;/div&gt;&lt;div&gt;Principle 2: Be smart with state&lt;/div&gt;&lt;div&gt;Principle 3: Favor managed services&lt;/div&gt;&lt;div&gt;Principle 4: Practice defense in depth&lt;/div&gt;&lt;div&gt;Principle 5: Always be architecting&lt;/div&gt;" style="text;html=1;align=left;verticalAlign=middle;resizable=0;points=[];autosize=1;strokeColor=none;fillColor=none;fontSize=14;" vertex="1" parent="fZuJMfBiT-5ghEMpBZgV-1">
          <mxGeometry x="164" y="130" width="250" height="90" as="geometry" />
        </mxCell>
      </root>
    </mxGraphModel>
  </diagram>
  <diagram id="vHLv0AFeSck8E3oYMfFP" name="6. Continuous Infra Automation">
    <mxGraphModel dx="1108" dy="450" grid="1" gridSize="10" guides="1" tooltips="1" connect="1" arrows="1" fold="1" page="1" pageScale="1" pageWidth="827" pageHeight="1169" math="0" shadow="0">
      <root>
        <mxCell id="YY5yVMB_4Egu9hVL0d9L-0" />
        <mxCell id="YY5yVMB_4Egu9hVL0d9L-1" parent="YY5yVMB_4Egu9hVL0d9L-0" />
        <mxCell id="3e-g_3lKjPKAuE3tW4Lp-2" value="Deploy" style="text;html=1;strokeColor=none;fillColor=none;align=center;verticalAlign=middle;whiteSpace=wrap;rounded=0;fontSize=14;" vertex="1" parent="YY5yVMB_4Egu9hVL0d9L-1">
          <mxGeometry x="610" y="180" width="60" height="30" as="geometry" />
        </mxCell>
        <mxCell id="3e-g_3lKjPKAuE3tW4Lp-3" value="Monitoring Alert" style="text;html=1;strokeColor=none;fillColor=none;align=center;verticalAlign=middle;whiteSpace=wrap;rounded=0;fontSize=14;" vertex="1" parent="YY5yVMB_4Egu9hVL0d9L-1">
          <mxGeometry x="480" y="190" width="60" height="30" as="geometry" />
        </mxCell>
        <mxCell id="3e-g_3lKjPKAuE3tW4Lp-4" value="Optimize" style="text;html=1;strokeColor=none;fillColor=none;align=center;verticalAlign=middle;whiteSpace=wrap;rounded=0;fontSize=14;" vertex="1" parent="YY5yVMB_4Egu9hVL0d9L-1">
          <mxGeometry x="290" y="190" width="60" height="30" as="geometry" />
        </mxCell>
        <mxCell id="3e-g_3lKjPKAuE3tW4Lp-5" value="IAAS" style="text;html=1;strokeColor=none;fillColor=none;align=center;verticalAlign=middle;whiteSpace=wrap;rounded=0;fontSize=14;" vertex="1" parent="YY5yVMB_4Egu9hVL0d9L-1">
          <mxGeometry x="140" y="190" width="60" height="30" as="geometry" />
        </mxCell>
        <mxCell id="3e-g_3lKjPKAuE3tW4Lp-6" value="Costing" style="text;html=1;strokeColor=none;fillColor=none;align=center;verticalAlign=middle;whiteSpace=wrap;rounded=0;fontSize=14;" vertex="1" parent="YY5yVMB_4Egu9hVL0d9L-1">
          <mxGeometry x="620" y="90" width="60" height="30" as="geometry" />
        </mxCell>
        <mxCell id="3e-g_3lKjPKAuE3tW4Lp-7" value="Test Infra as code" style="text;html=1;strokeColor=none;fillColor=none;align=center;verticalAlign=middle;whiteSpace=wrap;rounded=0;fontSize=14;" vertex="1" parent="YY5yVMB_4Egu9hVL0d9L-1">
          <mxGeometry x="480" y="90" width="60" height="30" as="geometry" />
        </mxCell>
        <mxCell id="3e-g_3lKjPKAuE3tW4Lp-8" value="Access rights/Sharing" style="text;html=1;strokeColor=none;fillColor=none;align=center;verticalAlign=middle;whiteSpace=wrap;rounded=0;fontSize=14;" vertex="1" parent="YY5yVMB_4Egu9hVL0d9L-1">
          <mxGeometry x="290" y="90" width="60" height="30" as="geometry" />
        </mxCell>
        <mxCell id="3e-g_3lKjPKAuE3tW4Lp-9" value="Generate infra as code" style="text;html=1;strokeColor=none;fillColor=none;align=center;verticalAlign=middle;whiteSpace=wrap;rounded=0;fontSize=14;" vertex="1" parent="YY5yVMB_4Egu9hVL0d9L-1">
          <mxGeometry x="150" y="90" width="60" height="30" as="geometry" />
        </mxCell>
        <mxCell id="D4pJ8pNPuUgskNwQ8nst-0" value="Implement Agile coding practices in Infra" style="text;html=1;strokeColor=none;fillColor=none;align=center;verticalAlign=middle;whiteSpace=wrap;rounded=0;fontSize=14;" vertex="1" parent="YY5yVMB_4Egu9hVL0d9L-1">
          <mxGeometry x="60" y="20" width="430" height="30" as="geometry" />
        </mxCell>
      </root>
    </mxGraphModel>
  </diagram>
  <diagram id="r80E41eSpDickavSKKn5" name="7. Reliability and resilience">
    <mxGraphModel dx="1108" dy="450" grid="1" gridSize="10" guides="1" tooltips="1" connect="1" arrows="1" fold="1" page="1" pageScale="1" pageWidth="827" pageHeight="1169" math="0" shadow="0">
      <root>
        <mxCell id="flJtcCS4EtRoTuD62Tjq-0" />
        <mxCell id="flJtcCS4EtRoTuD62Tjq-1" parent="flJtcCS4EtRoTuD62Tjq-0" />
        <mxCell id="flJtcCS4EtRoTuD62Tjq-2" value="7. Reliability and resilience" style="text;html=1;align=center;verticalAlign=middle;resizable=0;points=[];autosize=1;strokeColor=none;fillColor=none;fontSize=14;" vertex="1" parent="flJtcCS4EtRoTuD62Tjq-1">
          <mxGeometry x="310" y="130" width="180" height="20" as="geometry" />
        </mxCell>
      </root>
    </mxGraphModel>
  </diagram>
  <diagram id="WWYCK-WJcOKpdIXAat-W" name="8. Security automation">
    <mxGraphModel dx="1108" dy="450" grid="1" gridSize="10" guides="1" tooltips="1" connect="1" arrows="1" fold="1" page="1" pageScale="1" pageWidth="827" pageHeight="1169" math="0" shadow="0">
      <root>
        <mxCell id="OZWTwHjLbKdoF3ZLP-mc-0" />
        <mxCell id="OZWTwHjLbKdoF3ZLP-mc-1" parent="OZWTwHjLbKdoF3ZLP-mc-0" />
        <mxCell id="OZWTwHjLbKdoF3ZLP-mc-2" value="&lt;b style=&quot;box-sizing: inherit; font-weight: bolder; color: rgb(54, 60, 68); font-family: splunk_data_sans, helvetica, arial, sans-serif; font-size: 18px; font-style: normal; letter-spacing: normal; text-align: left; text-indent: 0px; text-transform: none; word-spacing: 0px; background-color: rgb(255, 255, 255);&quot;&gt;Playbook creation and customization&lt;/b&gt;" style="text;whiteSpace=wrap;html=1;fontSize=14;" vertex="1" parent="OZWTwHjLbKdoF3ZLP-mc-1">
          <mxGeometry x="74" y="110" width="340" height="30" as="geometry" />
        </mxCell>
        <mxCell id="OZWTwHjLbKdoF3ZLP-mc-3" value="&lt;span style=&quot;box-sizing: inherit ; font-weight: bolder ; color: rgb(54 , 60 , 68) ; font-family: &amp;#34;splunk_data_sans&amp;#34; , &amp;#34;helvetica&amp;#34; , &amp;#34;arial&amp;#34; , sans-serif ; font-size: 18px ; text-align: left ; background-color: rgb(255 , 255 , 255)&quot;&gt;Standardized incident response processes&lt;/span&gt;" style="text;html=1;align=center;verticalAlign=middle;resizable=0;points=[];autosize=1;strokeColor=none;fillColor=none;fontSize=14;" vertex="1" parent="OZWTwHjLbKdoF3ZLP-mc-1">
          <mxGeometry x="70" y="160" width="380" height="20" as="geometry" />
        </mxCell>
        <mxCell id="OZWTwHjLbKdoF3ZLP-mc-4" value="&lt;b style=&quot;box-sizing: inherit; font-weight: bolder; color: rgb(54, 60, 68); font-family: splunk_data_sans, helvetica, arial, sans-serif; font-size: 18px; font-style: normal; letter-spacing: normal; text-align: left; text-indent: 0px; text-transform: none; word-spacing: 0px; background-color: rgb(255, 255, 255);&quot;&gt;Seamless integration with other security systems&lt;/b&gt;" style="text;whiteSpace=wrap;html=1;fontSize=14;" vertex="1" parent="OZWTwHjLbKdoF3ZLP-mc-1">
          <mxGeometry x="74" y="200" width="450" height="30" as="geometry" />
        </mxCell>
      </root>
    </mxGraphModel>
  </diagram>
  <diagram id="mKPDvHO0f5A6jZFC3uSu" name="9. Continuous compliance automation">
    <mxGraphModel dx="1108" dy="450" grid="1" gridSize="10" guides="1" tooltips="1" connect="1" arrows="1" fold="1" page="1" pageScale="1" pageWidth="827" pageHeight="1169" math="0" shadow="0">
      <root>
        <mxCell id="InZBeJGUplL0w23en9Lo-0" />
        <mxCell id="InZBeJGUplL0w23en9Lo-1" parent="InZBeJGUplL0w23en9Lo-0" />
        <mxCell id="InZBeJGUplL0w23en9Lo-2" value="CIS benchmarking" style="text;html=1;strokeColor=none;fillColor=none;align=center;verticalAlign=middle;whiteSpace=wrap;rounded=0;fontSize=14;" vertex="1" parent="InZBeJGUplL0w23en9Lo-1">
          <mxGeometry x="140" y="60" width="250" height="30" as="geometry" />
        </mxCell>
      </root>
    </mxGraphModel>
  </diagram>
  <diagram id="KmY9pNtc6fMLQCUFzfhl" name="10. Value stream engineering">
    <mxGraphModel dx="1108" dy="450" grid="1" gridSize="10" guides="1" tooltips="1" connect="1" arrows="1" fold="1" page="1" pageScale="1" pageWidth="827" pageHeight="1169" math="0" shadow="0">
      <root>
        <mxCell id="RRkXE-N0SbM3n0t4cq55-0" />
        <mxCell id="RRkXE-N0SbM3n0t4cq55-1" parent="RRkXE-N0SbM3n0t4cq55-0" />
        <mxCell id="RRkXE-N0SbM3n0t4cq55-2" value="Google map view on how process are working/Bottle necks" style="text;html=1;strokeColor=none;fillColor=none;align=center;verticalAlign=middle;whiteSpace=wrap;rounded=0;fontSize=14;" vertex="1" parent="RRkXE-N0SbM3n0t4cq55-1">
          <mxGeometry x="190" y="60" width="420" height="30" as="geometry" />
        </mxCell>
      </root>
    </mxGraphModel>
  </diagram>
</mxfile>
